<svg xmlns="http://www.w3.org/2000/svg" viewBox="0 0 32 32" width="32" height="32" fill="none">
  <defs>
    <linearGradient id="cosmic-grad" x1="0%" y1="0%" x2="100%" y2="100%">
      <stop offset="0%" stop-color="#f43f5e" />
      <stop offset="50%" stop-color="#8b5cf6" />
      <stop offset="100%" stop-color="#3b82f6" />
    </linearGradient>
    <filter id="glow" x="-20%" y="-20%" width="140%" height="140%">
      <feGaussianBlur stdDeviation="1.5" result="blur" />
      <feComposite in="SourceGraphic" in2="blur" operator="over" />
    </filter>
  </defs>
  <circle cx="16" cy="16" r="14" fill="#0f172a" stroke="url(#cosmic-grad)" stroke-width="1.5" />
  <path d="M16 9.5 C16 9.5 14 7 11 7 C8 7 6 9.5 6 12.5 C6 17.5 12 21.5 16 25 C20 21.5 26 17.5 26 12.5 C26 9.5 24 7 21 7 C18 7 16 9.5 16 9.5 Z" fill="url(#cosmic-grad)" filter="url(#glow)" />
  <path d="M16 11.5 L17.2 14.5 L20.5 14.5 L17.8 16.5 L18.8 19.5 L16 17.6 L13.2 19.5 L14.2 16.5 L11.5 14.5 L14.8 14.5 Z" fill="#ffffff" />
</svg>